<?xml version="1.0" encoding="UTF-8" standalone="no"?><!DOCTYPE svg PUBLIC "-//W3C//DTD SVG 1.1//EN" "http://www.w3.org/Graphics/SVG/1.1/DTD/svg11.dtd"><svg width="100%" height="100%" viewBox="0 0 2378 375" version="1.1" xmlns="http://www.w3.org/2000/svg" xmlns:xlink="http://www.w3.org/1999/xlink" xml:space="preserve" xmlns:serif="http://www.serif.com/" style="fill-rule:evenodd;clip-rule:evenodd;stroke-linejoin:round;stroke-miterlimit:2;"><rect id="Artboard1" x="0" y="0" width="2378" height="375" style="fill:none;"/><g transform="matrix(1,0,0,1,-571,-532)"><g transform="matrix(333.333333,0,0,333.333333,560.205081,834.792538)"><path d="M0.345,-0.318l-0.262,-0.432l0.144,0l0.227,0.374l0.2,-0.374l0.041,0l-0.226,0.424l0,0.326l-0.124,-0l0,-0.318Z" style="fill:#fff;fill-rule:nonzero;"/></g><g transform="matrix(333.333333,0,0,333.333333,742.871748,834.792538)"><path d="M0.079,-0.116c0,-0.031 0.01,-0.056 0.029,-0.075c0.019,-0.019 0.043,-0.035 0.072,-0.048c0.029,-0.012 0.061,-0.022 0.095,-0.03c0.034,-0.008 0.066,-0.016 0.094,-0.024c0.029,-0.008 0.053,-0.017 0.073,-0.028c0.019,-0.011 0.029,-0.025 0.029,-0.042c0,-0.016 -0.003,-0.031 -0.008,-0.046c-0.005,-0.015 -0.013,-0.027 -0.024,-0.038c-0.011,-0.011 -0.024,-0.02 -0.04,-0.026c-0.016,-0.006 -0.036,-0.009 -0.057,-0.009c-0.019,0 -0.037,0.003 -0.054,0.007c-0.017,0.005 -0.033,0.012 -0.047,0.021c-0.014,0.009 -0.027,0.018 -0.038,0.029c-0.011,0.01 -0.022,0.021 -0.031,0.032c-0.021,0.027 -0.038,0.057 -0.052,0.09l-0.025,-0.133c0.019,-0.015 0.041,-0.029 0.066,-0.042c0.021,-0.01 0.048,-0.019 0.079,-0.028c0.031,-0.009 0.067,-0.013 0.107,-0.013c0.041,0 0.076,0.005 0.107,0.015c0.031,0.01 0.056,0.024 0.077,0.041c0.021,0.018 0.036,0.039 0.047,0.063c0.011,0.024 0.016,0.05 0.016,0.079l0,0.322l-0.122,-0l0,-0.066c-0.009,0.009 -0.019,0.018 -0.031,0.027c-0.012,0.009 -0.026,0.017 -0.043,0.025c-0.017,0.007 -0.036,0.013 -0.057,0.017c-0.021,0.005 -0.045,0.007 -0.072,0.007c-0.056,0 -0.102,-0.011 -0.137,-0.032c-0.035,-0.021 -0.053,-0.053 -0.053,-0.094Zm0.392,-0.182c-0.013,0.009 -0.028,0.016 -0.047,0.023c-0.018,0.007 -0.037,0.014 -0.057,0.021c-0.02,0.007 -0.04,0.014 -0.059,0.022c-0.02,0.008 -0.037,0.017 -0.053,0.027c-0.016,0.01 -0.029,0.023 -0.039,0.037c-0.01,0.014 -0.015,0.031 -0.014,0.051c-0,0.024 0.009,0.045 0.025,0.062c0.017,0.017 0.044,0.026 0.081,0.025c0.021,-0.001 0.041,-0.004 0.058,-0.01c0.017,-0.006 0.033,-0.014 0.047,-0.023c0.014,-0.009 0.026,-0.02 0.035,-0.031c0.01,-0.011 0.017,-0.023 0.023,-0.034l0,-0.17Z" style="fill:#fff;fill-rule:nonzero;"/></g><g transform="matrix(333.333333,0,0,333.333333,929.205081,834.792538)"><path d="M0.079,-0.378c0,-0.021 0.005,-0.041 0.015,-0.058c0.01,-0.018 0.025,-0.033 0.043,-0.045c0.018,-0.012 0.041,-0.022 0.067,-0.029c0.026,-0.007 0.054,-0.01 0.085,-0.01c0.023,0 0.045,0.002 0.066,0.006c0.021,0.004 0.041,0.009 0.06,0.015c0.018,0.006 0.035,0.014 0.05,0.022c0.015,0.009 0.027,0.018 0.037,0.029l-0.026,0.113c-0.007,-0.013 -0.016,-0.028 -0.029,-0.045c-0.013,-0.017 -0.028,-0.032 -0.045,-0.047c-0.017,-0.015 -0.037,-0.027 -0.058,-0.038c-0.022,-0.01 -0.045,-0.015 -0.07,-0.015c-0.026,0 -0.047,0.006 -0.062,0.017c-0.015,0.011 -0.022,0.026 -0.022,0.045c0,0.02 0.008,0.037 0.024,0.051c0.016,0.014 0.037,0.027 0.062,0.038c0.025,0.011 0.051,0.023 0.08,0.034c0.029,0.011 0.056,0.024 0.081,0.038c0.025,0.014 0.045,0.032 0.061,0.051c0.016,0.02 0.025,0.045 0.025,0.074c0,0.023 -0.005,0.043 -0.016,0.06c-0.011,0.017 -0.026,0.032 -0.045,0.044c-0.019,0.012 -0.042,0.021 -0.068,0.027c-0.026,0.006 -0.055,0.009 -0.086,0.009c-0.027,0 -0.052,-0.002 -0.075,-0.007c-0.024,-0.004 -0.045,-0.01 -0.066,-0.017c-0.02,-0.007 -0.038,-0.014 -0.053,-0.023c-0.015,-0.009 -0.027,-0.018 -0.036,-0.027l0.027,-0.118c0.007,0.015 0.018,0.031 0.031,0.048c0.013,0.018 0.028,0.034 0.046,0.05c0.018,0.016 0.039,0.029 0.061,0.04c0.023,0.011 0.048,0.016 0.075,0.016c0.03,0 0.053,-0.007 0.069,-0.019c0.016,-0.013 0.024,-0.03 0.024,-0.053c0,-0.023 -0.008,-0.042 -0.025,-0.057c-0.016,-0.015 -0.037,-0.028 -0.061,-0.039c-0.025,-0.011 -0.051,-0.022 -0.08,-0.032c-0.029,-0.01 -0.055,-0.022 -0.08,-0.035c-0.025,-0.013 -0.045,-0.029 -0.061,-0.047c-0.016,-0.018 -0.025,-0.042 -0.025,-0.07Z" style="fill:#fff;fill-rule:nonzero;"/></g><g transform="matrix(333.333333,0,0,333.333333,1079.871748,834.792538)"><path d="M0.079,-0.378c0,-0.021 0.005,-0.041 0.015,-0.058c0.01,-0.018 0.025,-0.033 0.043,-0.045c0.018,-0.012 0.041,-0.022 0.067,-0.029c0.026,-0.007 0.054,-0.01 0.085,-0.01c0.023,0 0.045,0.002 0.066,0.006c0.021,0.004 0.041,0.009 0.06,0.015c0.018,0.006 0.035,0.014 0.05,0.022c0.015,0.009 0.027,0.018 0.037,0.029l-0.026,0.113c-0.007,-0.013 -0.016,-0.028 -0.029,-0.045c-0.013,-0.017 -0.028,-0.032 -0.045,-0.047c-0.017,-0.015 -0.037,-0.027 -0.058,-0.038c-0.022,-0.01 -0.045,-0.015 -0.07,-0.015c-0.026,0 -0.047,0.006 -0.062,0.017c-0.015,0.011 -0.022,0.026 -0.022,0.045c0,0.02 0.008,0.037 0.024,0.051c0.016,0.014 0.037,0.027 0.062,0.038c0.025,0.011 0.051,0.023 0.08,0.034c0.029,0.011 0.056,0.024 0.081,0.038c0.025,0.014 0.045,0.032 0.061,0.051c0.016,0.02 0.025,0.045 0.025,0.074c0,0.023 -0.005,0.043 -0.016,0.06c-0.011,0.017 -0.026,0.032 -0.045,0.044c-0.019,0.012 -0.042,0.021 -0.068,0.027c-0.026,0.006 -0.055,0.009 -0.086,0.009c-0.027,0 -0.052,-0.002 -0.075,-0.007c-0.024,-0.004 -0.045,-0.01 -0.066,-0.017c-0.02,-0.007 -0.038,-0.014 -0.053,-0.023c-0.015,-0.009 -0.027,-0.018 -0.036,-0.027l0.027,-0.118c0.007,0.015 0.018,0.031 0.031,0.048c0.013,0.018 0.028,0.034 0.046,0.05c0.018,0.016 0.039,0.029 0.061,0.04c0.023,0.011 0.048,0.016 0.075,0.016c0.03,0 0.053,-0.007 0.069,-0.019c0.016,-0.013 0.024,-0.03 0.024,-0.053c0,-0.023 -0.008,-0.042 -0.025,-0.057c-0.016,-0.015 -0.037,-0.028 -0.061,-0.039c-0.025,-0.011 -0.051,-0.022 -0.08,-0.032c-0.029,-0.01 -0.055,-0.022 -0.08,-0.035c-0.025,-0.013 -0.045,-0.029 -0.061,-0.047c-0.016,-0.018 -0.025,-0.042 -0.025,-0.07Z" style="fill:#fff;fill-rule:nonzero;"/></g><g transform="matrix(333.333333,0,0,333.333333,1230.538414,834.792538)"><path d="M0.621,-0.275l-0.427,0c0.004,0.031 0.012,0.061 0.023,0.089c0.011,0.028 0.027,0.053 0.046,0.074c0.019,0.021 0.042,0.038 0.069,0.051c0.027,0.012 0.057,0.018 0.091,0.018c0.026,0 0.048,-0.004 0.068,-0.01c0.019,-0.007 0.035,-0.015 0.048,-0.022c0.014,-0.01 0.026,-0.021 0.036,-0.033l0.022,0.028c-0.011,0.017 -0.027,0.032 -0.047,0.045c-0.017,0.011 -0.038,0.022 -0.065,0.032c-0.027,0.01 -0.06,0.015 -0.1,0.015c-0.044,0 -0.084,-0.007 -0.121,-0.019c-0.037,-0.013 -0.068,-0.031 -0.095,-0.055c-0.026,-0.024 -0.047,-0.051 -0.062,-0.083c-0.015,-0.032 -0.022,-0.067 -0.022,-0.105c0,-0.037 0.007,-0.071 0.02,-0.103c0.014,-0.032 0.033,-0.061 0.057,-0.085c0.024,-0.024 0.054,-0.044 0.088,-0.057c0.034,-0.014 0.072,-0.021 0.113,-0.021c0.041,0 0.078,0.007 0.11,0.021c0.032,0.014 0.059,0.032 0.081,0.054c0.022,0.023 0.039,0.049 0.05,0.078c0.011,0.029 0.017,0.06 0.017,0.092Zm-0.124,-0.036c-0.003,-0.024 -0.01,-0.046 -0.018,-0.067c-0.009,-0.021 -0.02,-0.039 -0.034,-0.054c-0.013,-0.015 -0.029,-0.027 -0.046,-0.036c-0.018,-0.009 -0.037,-0.013 -0.058,-0.013c-0.024,-0 -0.045,0.005 -0.064,0.014c-0.018,0.009 -0.034,0.022 -0.047,0.037c-0.013,0.015 -0.022,0.033 -0.028,0.054c-0.006,0.021 -0.009,0.042 -0.01,0.065l0.305,0Z" style="fill:#fff;fill-rule:nonzero;"/></g><g transform="matrix(333.333333,0,0,333.333333,1426.205081,834.792538)"><path d="M0.079,-0.51l0.122,0l0,0.076c0.008,-0.01 0.018,-0.02 0.03,-0.03c0.012,-0.01 0.026,-0.019 0.041,-0.027c0.015,-0.008 0.033,-0.015 0.052,-0.021c0.02,-0.005 0.041,-0.008 0.066,-0.008c0.034,0 0.064,0.005 0.089,0.014c0.025,0.01 0.045,0.021 0.058,0.035l-0.041,0.133c-0.004,-0.009 -0.01,-0.02 -0.019,-0.035c-0.009,-0.015 -0.02,-0.029 -0.033,-0.043c-0.013,-0.014 -0.029,-0.027 -0.047,-0.038c-0.018,-0.011 -0.039,-0.016 -0.062,-0.016c-0.018,0 -0.034,0.003 -0.049,0.01c-0.015,0.007 -0.028,0.015 -0.039,0.024c-0.011,0.009 -0.02,0.019 -0.028,0.03c-0.008,0.011 -0.014,0.02 -0.018,0.028l0,0.378l-0.122,-0l0,-0.51Z" style="fill:#fff;fill-rule:nonzero;"/></g><g transform="matrix(333.333333,0,0,333.333333,1587.871748,834.792538)"><path d="M0.078,-0.75l0.108,0l-0.034,0.192l-0.037,0l-0.037,-0.192Z" style="fill:#a38560;fill-rule:nonzero;"/></g><g transform="matrix(333.333333,0,0,333.333333,1635.871748,834.792538)"><path d="M0.079,-0.378c0,-0.021 0.005,-0.041 0.015,-0.058c0.01,-0.018 0.025,-0.033 0.043,-0.045c0.018,-0.012 0.041,-0.022 0.067,-0.029c0.026,-0.007 0.054,-0.01 0.085,-0.01c0.023,0 0.045,0.002 0.066,0.006c0.021,0.004 0.041,0.009 0.06,0.015c0.018,0.006 0.035,0.014 0.05,0.022c0.015,0.009 0.027,0.018 0.037,0.029l-0.026,0.113c-0.007,-0.013 -0.016,-0.028 -0.029,-0.045c-0.013,-0.017 -0.028,-0.032 -0.045,-0.047c-0.017,-0.015 -0.037,-0.027 -0.058,-0.038c-0.022,-0.01 -0.045,-0.015 -0.07,-0.015c-0.026,0 -0.047,0.006 -0.062,0.017c-0.015,0.011 -0.022,0.026 -0.022,0.045c0,0.02 0.008,0.037 0.024,0.051c0.016,0.014 0.037,0.027 0.062,0.038c0.025,0.011 0.051,0.023 0.08,0.034c0.029,0.011 0.056,0.024 0.081,0.038c0.025,0.014 0.045,0.032 0.061,0.051c0.016,0.02 0.025,0.045 0.025,0.074c0,0.023 -0.005,0.043 -0.016,0.06c-0.011,0.017 -0.026,0.032 -0.045,0.044c-0.019,0.012 -0.042,0.021 -0.068,0.027c-0.026,0.006 -0.055,0.009 -0.086,0.009c-0.027,0 -0.052,-0.002 -0.075,-0.007c-0.024,-0.004 -0.045,-0.01 -0.066,-0.017c-0.02,-0.007 -0.038,-0.014 -0.053,-0.023c-0.015,-0.009 -0.027,-0.018 -0.036,-0.027l0.027,-0.118c0.007,0.015 0.018,0.031 0.031,0.048c0.013,0.018 0.028,0.034 0.046,0.05c0.018,0.016 0.039,0.029 0.061,0.04c0.023,0.011 0.048,0.016 0.075,0.016c0.03,0 0.053,-0.007 0.069,-0.019c0.016,-0.013 0.024,-0.03 0.024,-0.053c0,-0.023 -0.008,-0.042 -0.025,-0.057c-0.016,-0.015 -0.037,-0.028 -0.061,-0.039c-0.025,-0.011 -0.051,-0.022 -0.08,-0.032c-0.029,-0.01 -0.055,-0.022 -0.08,-0.035c-0.025,-0.013 -0.045,-0.029 -0.061,-0.047c-0.016,-0.018 -0.025,-0.042 -0.025,-0.07Z" style="fill:#fff;fill-rule:nonzero;"/></g><g transform="matrix(333.333333,0,0,333.333333,1869.871748,834.792538)"><path d="M0.083,-0.581c0,-0.027 0.007,-0.052 0.021,-0.074c0.014,-0.022 0.032,-0.041 0.055,-0.056c0.023,-0.015 0.051,-0.027 0.083,-0.036c0.032,-0.009 0.066,-0.013 0.102,-0.013c0.035,-0 0.068,0.004 0.097,0.01c0.029,0.007 0.055,0.016 0.077,0.026c0.022,0.01 0.041,0.02 0.055,0.031c0.014,0.011 0.024,0.02 0.028,0.027l-0.022,0.157c-0.003,-0.007 -0.007,-0.017 -0.013,-0.03c-0.006,-0.013 -0.014,-0.028 -0.024,-0.043c-0.01,-0.016 -0.022,-0.032 -0.035,-0.048c-0.014,-0.017 -0.029,-0.032 -0.047,-0.045c-0.018,-0.014 -0.037,-0.025 -0.058,-0.033c-0.021,-0.009 -0.044,-0.013 -0.069,-0.013c-0.017,0 -0.033,0.002 -0.048,0.006c-0.015,0.004 -0.029,0.011 -0.041,0.019c-0.012,0.009 -0.021,0.019 -0.027,0.032c-0.007,0.012 -0.01,0.026 -0.01,0.042c-0,0.029 0.011,0.055 0.032,0.078c0.021,0.023 0.047,0.046 0.078,0.067c0.031,0.021 0.065,0.042 0.101,0.063c0.037,0.021 0.071,0.043 0.101,0.067c0.031,0.024 0.057,0.05 0.078,0.079c0.021,0.029 0.031,0.062 0.031,0.099c0,0.028 -0.006,0.053 -0.019,0.076c-0.013,0.022 -0.03,0.041 -0.053,0.057c-0.023,0.016 -0.05,0.028 -0.082,0.036c-0.032,0.008 -0.067,0.013 -0.105,0.013c-0.035,0 -0.067,-0.003 -0.098,-0.009c-0.031,-0.006 -0.058,-0.014 -0.083,-0.024c-0.025,-0.01 -0.046,-0.02 -0.064,-0.032c-0.018,-0.012 -0.032,-0.022 -0.041,-0.032l0.023,-0.157c0.004,0.007 0.01,0.018 0.018,0.032c0.008,0.014 0.017,0.028 0.029,0.044c0.012,0.016 0.025,0.033 0.04,0.05c0.015,0.017 0.032,0.032 0.051,0.046c0.019,0.014 0.04,0.025 0.063,0.033c0.023,0.009 0.048,0.013 0.076,0.013c0.04,0 0.071,-0.009 0.092,-0.029c0.021,-0.019 0.032,-0.044 0.032,-0.076c0,-0.033 -0.011,-0.061 -0.031,-0.086c-0.021,-0.025 -0.047,-0.048 -0.079,-0.07c-0.031,-0.022 -0.065,-0.043 -0.102,-0.063c-0.036,-0.02 -0.07,-0.042 -0.101,-0.065c-0.031,-0.023 -0.058,-0.047 -0.079,-0.074c-0.021,-0.027 -0.032,-0.057 -0.032,-0.092Z" style="fill:#fff;fill-rule:nonzero;"/></g><g transform="matrix(333.333333,0,0,333.333333,2050.538414,834.792538)"><path d="M0.266,-0.51l0.168,0l0,0.037l-0.168,0l0,0.323c0,0.038 0.01,0.066 0.029,0.083c0.019,0.017 0.044,0.026 0.074,0.026c0.016,0 0.03,-0.002 0.043,-0.006c0.013,-0.004 0.024,-0.009 0.033,-0.014c0.011,-0.005 0.02,-0.012 0.029,-0.019l0.02,0.03c-0.011,0.011 -0.025,0.021 -0.042,0.03c-0.014,0.007 -0.032,0.014 -0.053,0.021c-0.021,0.006 -0.047,0.009 -0.077,0.009c-0.058,0 -0.102,-0.014 -0.133,-0.043c-0.03,-0.029 -0.045,-0.073 -0.045,-0.132l0,-0.308l-0.065,0l0,-0.037c0.042,0 0.076,-0.01 0.102,-0.029c0.026,-0.02 0.042,-0.044 0.048,-0.072l0.037,0l0,0.101Z" style="fill:#fff;fill-rule:nonzero;"/></g><g transform="matrix(333.333333,0,0,333.333333,2183.871748,834.792538)"><path d="M0.63,0.002l-0.123,0l0,-0.078c-0.009,0.009 -0.019,0.019 -0.031,0.029c-0.012,0.01 -0.027,0.02 -0.044,0.028c-0.017,0.008 -0.036,0.015 -0.058,0.02c-0.022,0.005 -0.047,0.008 -0.074,0.008c-0.032,0 -0.061,-0.004 -0.088,-0.012c-0.027,-0.008 -0.05,-0.021 -0.069,-0.037c-0.02,-0.017 -0.035,-0.038 -0.046,-0.065c-0.011,-0.026 -0.017,-0.057 -0.017,-0.094l0,-0.312l0.122,0l0,0.339c-0,0.048 0.013,0.083 0.038,0.104c0.025,0.021 0.056,0.032 0.095,0.032c0.025,0 0.048,-0.004 0.068,-0.011c0.02,-0.008 0.037,-0.017 0.051,-0.028c0.014,-0.011 0.026,-0.022 0.035,-0.034c0.009,-0.011 0.016,-0.021 0.02,-0.028l0,-0.374l0.123,0l0,0.512Z" style="fill:#fff;fill-rule:nonzero;"/></g><g transform="matrix(333.333333,0,0,333.333333,2380.871748,834.792538)"><path d="M0.514,-0l0,-0.058c-0.015,0.017 -0.035,0.032 -0.062,0.046c-0.027,0.014 -0.062,0.022 -0.105,0.022c-0.037,-0 -0.072,-0.006 -0.105,-0.019c-0.033,-0.013 -0.061,-0.031 -0.085,-0.054c-0.024,-0.023 -0.043,-0.051 -0.057,-0.084c-0.014,-0.033 -0.021,-0.069 -0.021,-0.109c0,-0.037 0.006,-0.072 0.019,-0.104c0.012,-0.032 0.03,-0.06 0.053,-0.084c0.023,-0.024 0.05,-0.042 0.083,-0.055c0.032,-0.013 0.067,-0.02 0.106,-0.02c0.022,0 0.042,0.002 0.06,0.007c0.018,0.004 0.035,0.01 0.049,0.016c0.014,0.007 0.027,0.014 0.037,0.022c0.011,0.008 0.02,0.017 0.028,0.025l0,-0.32l0.122,0l0,0.77l-0.122,-0Zm0,-0.394c-0.001,-0.002 -0.004,-0.008 -0.009,-0.017c-0.006,-0.009 -0.014,-0.019 -0.026,-0.03c-0.012,-0.011 -0.027,-0.02 -0.045,-0.029c-0.018,-0.009 -0.04,-0.013 -0.065,-0.013c-0.053,0 -0.094,0.02 -0.123,0.061c-0.03,0.041 -0.045,0.096 -0.044,0.167c-0,0.033 0.004,0.063 0.01,0.091c0.007,0.028 0.017,0.052 0.031,0.073c0.014,0.02 0.031,0.036 0.052,0.048c0.021,0.011 0.046,0.017 0.074,0.017c0.028,0 0.051,-0.005 0.07,-0.015c0.018,-0.01 0.033,-0.02 0.044,-0.031c0.013,-0.013 0.024,-0.028 0.032,-0.045l0,-0.276Z" style="fill:#fff;fill-rule:nonzero;"/></g><g transform="matrix(333.333333,0,0,333.333333,2595.871748,834.792538)"><path d="M0.063,-0.704c0,-0.023 0.007,-0.042 0.022,-0.057c0.014,-0.014 0.033,-0.021 0.057,-0.021c0.022,0 0.04,0.007 0.054,0.021c0.014,0.014 0.021,0.033 0.021,0.057c0,0.022 -0.007,0.04 -0.021,0.054c-0.014,0.014 -0.032,0.021 -0.054,0.021c-0.023,0 -0.042,-0.007 -0.057,-0.021c-0.014,-0.014 -0.022,-0.032 -0.022,-0.054Zm0.016,0.194l0.122,0l0,0.51l-0.122,-0l0,-0.51Z" style="fill:#fff;fill-rule:nonzero;"/></g><g transform="matrix(333.333333,0,0,333.333333,2650.205081,834.792538)"><path d="M0.374,-0.52c0.043,0 0.083,0.007 0.119,0.02c0.036,0.013 0.068,0.032 0.093,0.055c0.026,0.024 0.046,0.052 0.06,0.084c0.014,0.032 0.022,0.068 0.022,0.105c0,0.037 -0.007,0.071 -0.021,0.104c-0.014,0.032 -0.034,0.06 -0.059,0.084c-0.025,0.024 -0.056,0.043 -0.092,0.057c-0.036,0.014 -0.077,0.021 -0.12,0.021c-0.044,-0 -0.084,-0.007 -0.12,-0.021c-0.036,-0.014 -0.068,-0.032 -0.094,-0.056c-0.026,-0.024 -0.047,-0.052 -0.061,-0.084c-0.014,-0.032 -0.022,-0.067 -0.022,-0.105c0,-0.037 0.007,-0.071 0.021,-0.103c0.014,-0.032 0.034,-0.061 0.06,-0.085c0.026,-0.024 0.057,-0.043 0.093,-0.056c0.036,-0.014 0.077,-0.021 0.12,-0.021Zm-0.079,0.044c-0.027,0.009 -0.048,0.022 -0.064,0.04c-0.016,0.018 -0.028,0.039 -0.036,0.062c-0.007,0.024 -0.01,0.05 -0.009,0.079c0.002,0.028 0.008,0.057 0.018,0.087c0.019,0.057 0.046,0.101 0.082,0.133c0.036,0.032 0.075,0.048 0.117,0.048c0.015,-0 0.032,-0.003 0.05,-0.008c0.027,-0.009 0.049,-0.022 0.065,-0.041c0.016,-0.019 0.028,-0.041 0.034,-0.066c0.006,-0.025 0.008,-0.052 0.006,-0.081c-0.003,-0.029 -0.009,-0.059 -0.019,-0.089c-0.019,-0.057 -0.046,-0.101 -0.08,-0.13c-0.034,-0.029 -0.071,-0.044 -0.111,-0.043c-0.017,-0 -0.035,0.003 -0.053,0.009Z" style="fill:#fff;fill-rule:nonzero;"/></g><g transform="matrix(333.333333,0,0,333.333333,2839.205081,834.792538)"><path d="M0.083,-0.059c0,-0.021 0.007,-0.039 0.021,-0.052c0.014,-0.014 0.031,-0.021 0.052,-0.021c0.021,0 0.038,0.007 0.051,0.02c0.013,0.013 0.019,0.031 0.019,0.053c0,0.021 -0.006,0.038 -0.019,0.051c-0.013,0.013 -0.03,0.02 -0.051,0.019c-0.022,0 -0.04,-0.006 -0.053,-0.019c-0.013,-0.013 -0.02,-0.03 -0.02,-0.051Z" style="fill:#a38560;fill-rule:nonzero;"/></g></g></svg>